<svg width="111" height="41" viewBox="0 0 111 41" fill="none" xmlns="http://www.w3.org/2000/svg">
<path d="M3.53493 27.5691H1.00221C0.928797 27.5691 0.89209 27.5322 0.89209 27.4586L0.936137 11.918C0.936137 11.859 0.965501 11.8296 1.02423 11.8296H8.24802C8.32146 11.8296 8.35818 11.859 8.35818 11.918V14.4694C8.35818 14.5283 8.32879 14.5578 8.27008 14.5578H3.64508V18.0701H8.27008C8.32879 18.0701 8.35818 18.107 8.35818 18.1806L8.38017 20.7431C8.38017 20.802 8.34348 20.8315 8.27008 20.8315H3.64508V27.4586C3.64508 27.5322 3.60837 27.5691 3.53493 27.5691ZM19.5665 27.5691H12.2766C12.2179 27.5691 12.1885 27.5322 12.1885 27.4586L12.2105 11.94C12.2105 11.8664 12.2473 11.8296 12.3207 11.8296H14.8314C14.9048 11.8296 14.9415 11.8664 14.9415 11.94L14.9195 24.7857H19.5665C19.6399 24.7857 19.6766 24.8225 19.6766 24.8961V27.4586C19.6766 27.5322 19.6399 27.5691 19.5665 27.5691ZM27.1079 27.79C26.3151 27.79 25.5809 27.5838 24.9055 27.1714C24.2301 26.7591 23.6906 26.2068 23.2868 25.5146C22.8903 24.8151 22.6921 24.053 22.6921 23.2283L22.7362 11.918C22.7362 11.859 22.7656 11.8296 22.8243 11.8296H25.357C25.4157 11.8296 25.4451 11.859 25.4451 11.918V23.2283C25.4451 23.7363 25.6066 24.1708 25.9296 24.5316C26.2526 24.885 26.6454 25.0618 27.1079 25.0618C27.5924 25.0618 27.9962 24.885 28.3192 24.5316C28.6422 24.1708 28.8037 23.7363 28.8037 23.2283V11.918C28.8037 11.859 28.8331 11.8296 28.8918 11.8296H31.4246C31.4833 11.8296 31.5127 11.859 31.5127 11.918L31.5567 23.2283C31.5567 24.0604 31.3585 24.8262 30.9621 25.5257C30.5583 26.2179 30.0224 26.7701 29.3543 27.1825C28.6863 27.5875 27.9375 27.79 27.1079 27.79ZM39.946 27.5691H37.4022C37.3363 27.5691 37.3032 27.5322 37.3032 27.4586V14.5578H34.374C34.3006 14.5578 34.2639 14.5209 34.2639 14.4473L34.2859 11.918C34.2859 11.859 34.3153 11.8296 34.374 11.8296H42.9413C43.022 11.8296 43.0625 11.859 43.0625 11.918V14.4473C43.0625 14.5209 43.0329 14.5578 42.9744 14.5578H40.0123L40.0341 27.4586C40.0341 27.5322 40.0049 27.5691 39.946 27.5691ZM50.78 27.5691H48.2361C48.1702 27.5691 48.1371 27.5322 48.1371 27.4586V14.5578H45.2078C45.1345 14.5578 45.0978 14.5209 45.0978 14.4473L45.1197 11.918C45.1197 11.859 45.1493 11.8296 45.2078 11.8296H53.7752C53.8559 11.8296 53.8964 11.859 53.8964 11.918V14.4473C53.8964 14.5209 53.8668 14.5578 53.8083 14.5578H50.8459L50.8681 27.4586C50.8681 27.5322 50.8388 27.5691 50.78 27.5691ZM64.1796 27.5691H56.8899C56.8311 27.5691 56.8018 27.5322 56.8018 27.4586L56.8237 11.918C56.8237 11.859 56.8533 11.8296 56.9118 11.8296H64.1578C64.2163 11.8296 64.2459 11.8664 64.2459 11.94V14.4694C64.2459 14.5283 64.2163 14.5578 64.1578 14.5578H59.5328V18.0922H64.1578C64.2163 18.0922 64.2459 18.1217 64.2459 18.1806L64.2677 20.7431C64.2677 20.802 64.2385 20.8315 64.1796 20.8315H59.5328V24.7857H64.1796C64.2385 24.7857 64.2677 24.8225 64.2677 24.8961V27.4807C64.2677 27.5396 64.2385 27.5691 64.1796 27.5691ZM70.7191 27.5691H68.1643C68.1055 27.5691 68.0762 27.5322 68.0762 27.4586L68.1203 11.918C68.1203 11.859 68.1495 11.8296 68.2084 11.8296H72.7671C73.5822 11.8296 74.331 12.0284 75.0136 12.426C75.6965 12.8236 76.2395 13.3575 76.6433 14.0276C77.0546 14.6976 77.26 15.4561 77.26 16.3029C77.26 16.8552 77.1758 17.3559 77.007 17.8051C76.8378 18.2542 76.6398 18.6335 76.4122 18.9427C76.1919 19.252 75.99 19.4803 75.8064 19.6275C76.6215 20.5333 77.0288 21.5973 77.0288 22.8196L77.051 27.4586C77.051 27.5322 77.014 27.5691 76.9407 27.5691H74.386C74.3271 27.5691 74.2979 27.547 74.2979 27.5028V22.8196C74.2979 22.2747 74.1069 21.8034 73.7253 21.4058C73.3436 21.0082 72.8736 20.8094 72.3157 20.8094H70.829L70.8072 27.4586C70.8072 27.5322 70.7776 27.5691 70.7191 27.5691ZM72.7671 14.5357H70.829V18.0922H72.7671C73.2298 18.0922 73.6407 17.9192 74.0005 17.5731C74.3677 17.227 74.5512 16.8036 74.5512 16.3029C74.5512 15.8243 74.3751 15.4119 74.0227 15.0658C73.6703 14.7124 73.2517 14.5357 72.7671 14.5357ZM83.4031 27.5691H80.8701C80.7968 27.5691 80.7602 27.5322 80.7602 27.4586L80.8042 11.918C80.8042 11.859 80.8335 11.8296 80.8923 11.8296H88.1161C88.1894 11.8296 88.2261 11.859 88.2261 11.918V14.4694C88.2261 14.5283 88.1968 14.5578 88.138 14.5578H83.513V18.0701H88.138C88.1968 18.0701 88.2261 18.107 88.2261 18.1806L88.2483 20.7431C88.2483 20.802 88.2116 20.8315 88.138 20.8315H83.513V27.4586C83.513 27.5322 83.4763 27.5691 83.4031 27.5691ZM99.4346 27.5691H92.1446C92.0861 27.5691 92.0565 27.5322 92.0565 27.4586L92.0787 11.94C92.0787 11.8664 92.1153 11.8296 92.1886 11.8296H94.6993C94.773 11.8296 94.8096 11.8664 94.8096 11.94L94.7874 24.7857H99.4346C99.5079 24.7857 99.5446 24.8225 99.5446 24.8961V27.4586C99.5446 27.5322 99.5079 27.5691 99.4346 27.5691ZM107.526 27.5691H104.939C104.887 27.5691 104.862 27.5396 104.862 27.4807L104.883 21.0524L101.866 11.918C101.852 11.859 101.874 11.8296 101.932 11.8296H104.443C104.517 11.8296 104.561 11.859 104.575 11.918L106.238 18.0039L107.934 11.918C107.949 11.859 107.985 11.8296 108.044 11.8296H110.577C110.635 11.8296 110.658 11.859 110.643 11.918L107.593 20.964L107.614 27.4807C107.614 27.5396 107.585 27.5691 107.526 27.5691Z" fill="url(#paint0_linear_103_125)"/>
<path d="M61.3 36.8079C60.9759 36.8079 60.6844 36.7513 60.4261 36.6382C60.1724 36.5205 59.9726 36.3601 59.8271 36.1575C59.6816 35.9501 59.6061 35.7122 59.6016 35.4436H60.2852C60.3088 35.6744 60.4025 35.8702 60.5671 36.0303C60.7362 36.1858 60.9804 36.2636 61.3 36.2636C61.6056 36.2636 61.8452 36.1883 62.0189 36.0374C62.1976 35.8818 62.2867 35.6839 62.2867 35.4436C62.2867 35.2551 62.2349 35.1019 62.1317 34.9841C62.0284 34.8663 61.8991 34.7767 61.744 34.7155C61.589 34.6542 61.38 34.5882 61.1168 34.5175C60.7926 34.4327 60.5318 34.3479 60.3345 34.263C60.1418 34.1782 59.9751 34.0463 59.8341 33.8672C59.6978 33.6834 59.6298 33.4383 59.6298 33.132C59.6298 32.8634 59.6978 32.6254 59.8341 32.418C59.9705 32.2107 60.1608 32.0505 60.405 31.9374C60.6541 31.8243 60.9381 31.7677 61.2578 31.7677C61.7183 31.7677 62.094 31.8832 62.3854 32.1141C62.6814 32.345 62.8481 32.6513 62.8858 33.033H62.181C62.1574 32.8446 62.0587 32.6796 61.885 32.5382C61.7113 32.3921 61.4808 32.3191 61.1943 32.3191C60.9265 32.3191 60.708 32.3898 60.5389 32.5311C60.3698 32.6678 60.2852 32.861 60.2852 33.1108C60.2852 33.2899 60.3345 33.436 60.4332 33.5491C60.5364 33.6622 60.6612 33.7494 60.8067 33.8106C60.9572 33.8672 61.1661 33.9332 61.4339 34.0086C61.7581 34.0981 62.0189 34.1877 62.2162 34.2772C62.4136 34.362 62.5827 34.4963 62.7237 34.6801C62.8646 34.8592 62.9351 35.1043 62.9351 35.4153C62.9351 35.6556 62.8717 35.8818 62.7448 36.0939C62.6179 36.306 62.4301 36.4781 62.181 36.6099C61.9319 36.7418 61.6383 36.8079 61.3 36.8079ZM66.0353 36.7584L64.5201 35.0477V36.7584H63.8788V31.5274H64.5201V34.6024L66.0071 32.8846H66.9022L65.0839 34.8144L66.9092 36.7584H66.0353ZM70.8323 32.8846L68.5066 38.5822H67.8441L68.6052 36.716L67.0477 32.8846H67.7595L68.9717 36.0232L70.1698 32.8846H70.8323ZM73.6873 32.2555C73.565 32.2555 73.4618 32.213 73.3772 32.1282C73.2926 32.0434 73.2503 31.9397 73.2503 31.8172C73.2503 31.6946 73.2926 31.591 73.3772 31.5061C73.4618 31.4213 73.565 31.3789 73.6873 31.3789C73.8046 31.3789 73.9033 31.4213 73.9833 31.5061C74.0679 31.591 74.1101 31.6946 74.1101 31.8172C74.1101 31.9397 74.0679 32.0434 73.9833 32.1282C73.9033 32.213 73.8046 32.2555 73.6873 32.2555ZM73.9974 32.8846V36.7584H73.3561V32.8846H73.9974ZM76.4577 36.822C76.1617 36.822 75.896 36.7725 75.6613 36.6736C75.4263 36.57 75.2406 36.4286 75.1046 36.2494C74.9682 36.0656 74.8931 35.856 74.879 35.6203H75.5415C75.5602 35.8136 75.6493 35.9713 75.8093 36.0939C75.9735 36.2166 76.1874 36.2777 76.4507 36.2777C76.6949 36.2777 76.8876 36.2236 77.0286 36.1151C77.1695 36.0066 77.24 35.8702 77.24 35.7051C77.24 35.5355 77.1646 35.4107 77.0145 35.3305C76.864 35.2456 76.6314 35.1632 76.3168 35.083C76.0299 35.0077 75.7952 34.9322 75.612 34.8568C75.4333 34.7767 75.2783 34.6613 75.1469 34.5105C75.02 34.3549 74.9566 34.1523 74.9566 33.9025C74.9566 33.7046 75.0151 33.5232 75.1328 33.3582C75.2501 33.1933 75.4168 33.0637 75.6331 32.9694C75.8491 32.8705 76.0958 32.821 76.3731 32.821C76.8006 32.821 77.1459 32.9294 77.4091 33.1461C77.672 33.3629 77.813 33.6598 77.832 34.0368H77.1907C77.1766 33.8342 77.0941 33.6716 76.944 33.5491C76.7981 33.4265 76.6008 33.3653 76.352 33.3653C76.1215 33.3653 75.9383 33.4148 75.8023 33.5137C75.6659 33.6127 75.5979 33.7423 75.5979 33.9025C75.5979 34.0298 75.6377 34.1358 75.7177 34.2206C75.8023 34.3008 75.9055 34.3667 76.0278 34.4186C76.1547 34.4657 76.3284 34.5199 76.5493 34.5811C76.8263 34.6565 77.0518 34.732 77.2259 34.8074C77.3996 34.878 77.5476 34.9864 77.6699 35.1325C77.7968 35.2786 77.8623 35.4694 77.8672 35.7051C77.8672 35.9172 77.8084 36.108 77.691 36.2777C77.5733 36.4474 77.4067 36.5817 77.1907 36.6806C76.9792 36.775 76.7347 36.822 76.4577 36.822ZM81.4337 33.4148V35.698C81.4337 35.8864 81.4735 36.0207 81.5535 36.101C81.6335 36.1763 81.772 36.2141 81.9693 36.2141H82.4415V36.7584H81.8636C81.5066 36.7584 81.2388 36.676 81.0602 36.511C80.8815 36.3459 80.7923 36.0752 80.7923 35.698V33.4148H80.292V32.8846H80.7923V31.9091H81.4337V32.8846H82.4415V33.4148H81.4337ZM85.1354 32.8139C85.4269 32.8139 85.6897 32.8775 85.9248 33.0048C86.1598 33.1273 86.3431 33.3134 86.4745 33.5632C86.6109 33.813 86.6789 34.117 86.6789 34.4751V36.7584H86.0446V34.567C86.0446 34.1806 85.9484 33.886 85.7556 33.6834C85.5629 33.476 85.3 33.3724 84.9663 33.3724C84.628 33.3724 84.3577 33.4784 84.1558 33.6905C83.9585 33.9025 83.8598 34.2112 83.8598 34.6165V36.7584H83.2185V31.5274H83.8598V33.436C83.9867 33.238 84.1604 33.0849 84.3813 32.9765C84.6069 32.8681 84.8581 32.8139 85.1354 32.8139ZM91.2503 34.673C91.2503 34.7956 91.2433 34.9252 91.2292 35.0618H88.1423C88.1659 35.4436 88.2949 35.7429 88.5299 35.9596C88.7695 36.1717 89.0585 36.2777 89.3968 36.2777C89.6741 36.2777 89.9042 36.2141 90.0875 36.0868C90.2753 35.955 90.4071 35.7804 90.4821 35.5637H91.1728C91.0695 35.9359 90.8627 36.2399 90.5526 36.4756C90.2425 36.7064 89.8573 36.822 89.3968 36.822C89.0303 36.822 88.7015 36.7397 88.4101 36.5746C88.1236 36.4095 87.8981 36.1763 87.7335 35.8748C87.569 35.5683 87.4869 35.215 87.4869 34.8144C87.4869 34.4139 87.5669 34.0627 87.7265 33.7611C87.8861 33.4595 88.1095 33.2286 88.396 33.0684C88.6874 32.9034 89.0208 32.821 89.3968 32.821C89.7633 32.821 90.0875 32.9011 90.3694 33.0613C90.6513 33.2215 90.8673 33.443 91.0177 33.7258C91.1728 34.0039 91.2503 34.3196 91.2503 34.673ZM90.5878 34.5387C90.5878 34.2937 90.5339 34.084 90.4257 33.9096C90.3176 33.7305 90.1696 33.5962 89.9817 33.5067C89.7985 33.4124 89.5941 33.3653 89.3686 33.3653C89.0444 33.3653 88.7671 33.469 88.537 33.6763C88.3114 33.8837 88.1821 34.1711 88.1494 34.5387H90.5878ZM94.617 31.5274V36.7584H93.9756V31.5274H94.617ZM96.0413 32.2555C95.9193 32.2555 95.8158 32.213 95.7312 32.1282C95.6466 32.0434 95.6043 31.9397 95.6043 31.8172C95.6043 31.6946 95.6466 31.591 95.7312 31.5061C95.8158 31.4213 95.9193 31.3789 96.0413 31.3789C96.159 31.3789 96.2576 31.4213 96.3373 31.5061C96.4219 31.591 96.4641 31.6946 96.4641 31.8172C96.4641 31.9397 96.4219 32.0434 96.3373 32.1282C96.2576 32.213 96.159 32.2555 96.0413 32.2555ZM96.3514 32.8846V36.7584H95.71V32.8846H96.3514ZM102.089 32.8139C102.39 32.8139 102.658 32.8775 102.892 33.0048C103.127 33.1273 103.313 33.3134 103.449 33.5632C103.585 33.813 103.653 34.117 103.653 34.4751V36.7584H103.019V34.567C103.019 34.1806 102.923 33.886 102.73 33.6834C102.542 33.476 102.286 33.3724 101.962 33.3724C101.629 33.3724 101.363 33.4808 101.166 33.6975C100.968 33.9096 100.87 34.2183 100.87 34.6236V36.7584H100.235V34.567C100.235 34.1806 100.139 33.886 99.9464 33.6834C99.7585 33.476 99.5024 33.3724 99.1782 33.3724C98.8448 33.3724 98.5791 33.4808 98.3818 33.6975C98.1845 33.9096 98.0858 34.2183 98.0858 34.6236V36.7584H97.4445V32.8846H98.0858V33.443C98.2126 33.2404 98.3818 33.0849 98.5932 32.9765C98.8096 32.8681 99.0467 32.8139 99.305 32.8139C99.6292 32.8139 99.9161 32.887 100.165 33.033C100.414 33.1791 100.6 33.3936 100.722 33.6763C100.83 33.403 101.008 33.1909 101.257 33.0401C101.506 32.8893 101.784 32.8139 102.089 32.8139ZM105.037 32.2555C104.915 32.2555 104.811 32.213 104.727 32.1282C104.642 32.0434 104.6 31.9397 104.6 31.8172C104.6 31.6946 104.642 31.591 104.727 31.5061C104.811 31.4213 104.915 31.3789 105.037 31.3789C105.154 31.3789 105.253 31.4213 105.333 31.5061C105.417 31.591 105.46 31.6946 105.46 31.8172C105.46 31.9397 105.417 32.0434 105.333 32.1282C105.253 32.213 105.154 32.2555 105.037 32.2555ZM105.347 32.8846V36.7584H104.706V32.8846H105.347ZM107.222 33.4148V35.698C107.222 35.8864 107.262 36.0207 107.342 36.101C107.422 36.1763 107.561 36.2141 107.758 36.2141H108.23V36.7584H107.652C107.295 36.7584 107.027 36.676 106.849 36.511C106.67 36.3459 106.581 36.0752 106.581 35.698V33.4148H106.081V32.8846H106.581V31.9091H107.222V32.8846H108.23V33.4148H107.222Z" fill="url(#paint1_linear_103_125)"/>
<defs>
<linearGradient id="paint0_linear_103_125" x1="24.5103" y1="23.3473" x2="79.1654" y2="24.1836" gradientUnits="userSpaceOnUse">
<stop offset="0.119934" stop-color="#B00000"/>
<stop offset="1" stop-color="#173499"/>
</linearGradient>
<linearGradient id="paint1_linear_103_125" x1="67.7891" y1="34.2843" x2="102.367" y2="34.2843" gradientUnits="userSpaceOnUse">
<stop offset="0.299846" stop-color="#173499"/>
<stop offset="0.789573"/>
</linearGradient>
</defs>
</svg>
